ffmpeg version 5.1.4 Copyright (c) 2000-2023 the FFmpeg developers
  built with Apple clang version 15.0.0 (clang-1500.1.0.2.5)
  configuration: --prefix='/opt/homebrew/Cellar/ffmpeg@5/5.1.4_4' --datadir='/opt/homebrew/Cellar/ffmpeg@5/5.1.4_4/share/ffmpeg' --enable-shared --enable-pthreads --enable-version3 --cc=clang --host-cflags= --host-ldflags='-Wl,-ld_classic' --enable-ffplay --enable-gnutls --enable-gpl --enable-libaom --enable-libaribb24 --enable-libbluray --enable-libdav1d --enable-libmp3lame --enable-libopus --enable-librav1e --enable-librist --enable-librubberband --enable-libsnappy --enable-libsrt --enable-libsvtav1 --enable-libtesseract --enable-libtheora --enable-libvidstab --enable-libvmaf --enable-libvorbis --enable-libvpx --enable-libwebp --enable-libx264 --enable-libx265 --enable-libxml2 --enable-libxvid --enable-lzma --enable-libfontconfig --enable-libfreetype --enable-frei0r --enable-libass --enable-libopencore-amrnb --enable-libopencore-amrwb --enable-libopenjpeg --enable-libspeex --enable-libsoxr --enable-libzmq --enable-libzimg --disable-libjack --disable-indev=jack --enable-videotoolbox --enable-neon
  libavutil      57. 28.100 / 57. 28.100
  libavcodec     59. 37.100 / 59. 37.100
  libavformat    59. 27.100 / 59. 27.100
  libavdevice    59.  7.100 / 59.  7.100
  libavfilter     8. 44.100 /  8. 44.100
  libswscale      6.  7.100 /  6.  7.100
  libswresample   4.  7.100 /  4.  7.100
  libpostproc    56.  6.100 / 56.  6.100
Input #0, mov,mp4,m4a,3gp,3g2,mj2, from 'bbb_sunflower_7sec_1080p_30fps_normal.mp4':
  Metadata:
    major_brand     : isom
    minor_version   : 512
    compatible_brands: isomdby1iso2avc1mp41
    title           : Big Buck Bunny, Sunflower version
    artist          : Blender Foundation 2008, Janus Bager Kristensen 2013
    composer        : Sacha Goedegebure
    encoder         : Lavf59.27.100
    comment         : Creative Commons Attribution 3.0 - http://bbb3d.renderfarming.net
    genre           : Animation
  Duration: 00:00:07.07, start: 0.000000, bitrate: 1225 kb/s
  Stream #0:0[0x1](und): Video: h264 (High) (avc1 / 0x31637661), yuv420p(progressive), 1920x1080 [SAR 1:1 DAR 16:9], 900 kb/s, 30 fps, 30 tbr, 15360 tbn (default)
    Metadata:
      handler_name    : GPAC ISO Video Handler
      vendor_id       : [0][0][0][0]
      encoder         : Lavc59.37.100 libx264
  Stream #0:1[0x2](und): Audio: ac3 (ac-3 / 0x332D6361), 48000 Hz, 5.1(side), fltp, 320 kb/s (default)
    Metadata:
      handler_name    : GPAC ISO Audio Handler
      vendor_id       : [0][0][0][0]
    Side data:
      audio service type: main
File 'bbb_sunflower_7sec_1080p_30fps_normal_alliframes.mp4' already exists. Overwrite? [y/N] 